<svg xmlns="http://www.w3.org/2000/svg" xmlns:xlink="http://www.w3.org/1999/xlink" viewBox="0 0 144 135.48"><defs><style>.a{fill:none;}.b{fill:#bfbfbf;}.c{clip-path:url(#a);}.d{clip-path:url(#b);}.e{clip-path:url(#c);}.f{fill:#c4c4c4;}.g{clip-path:url(#d);}.h{clip-path:url(#e);}.i{clip-path:url(#f);}.j{fill:#959595;}.k{fill:#d0d0d0;}.l{fill:#fff;}.m{clip-path:url(#g);}.n{fill:#737373;}.o{fill:#b6b6b6;}.p{clip-path:url(#h);}.q{fill:#e8e8e8;}.r{fill:#cecece;}.s{fill:#dadada;}.t{fill:#e0e0e0;}</style><clipPath id="a"><rect class="a" x="88.29" y="43.43" width="32" height="56"/></clipPath><clipPath id="b"><rect class="a" x="88.29" y="43.43" width="22" height="56"/></clipPath><clipPath id="c"><rect class="a" x="25.29" y="75.43" width="63" height="24"/></clipPath><clipPath id="d"><rect class="a" x="60.29" y="0.43" width="7" height="7"/></clipPath><clipPath id="e"><rect class="a" x="25.29" y="14.43" width="3" height="11"/></clipPath><clipPath id="f"><rect class="a" x="46.29" y="57.43" width="28" height="18"/></clipPath><clipPath id="g"><rect class="a" x="18.29" y="75.43" width="31" height="24"/></clipPath><clipPath id="h"><rect class="a" x="18.29" y="99.43" width="106" height="18"/></clipPath></defs><title>wombat-no-avatar</title><path class="b" d="M91.62,134.48c7.5-2,15.29-4.26,21-8.13,0,0,0-17.59-7-32.25S84.19,67.88,67.32,67.88,36.06,79.42,29,94.08s-7,32.27-7,32.27c5.73,3.88,13.52,6.13,21,8.13Z"/><path class="b" d="M92.74,68.12S105.5,44.62,118,32.44c12.54,12.92,9.59,35.62,8.52,38.79-3,8.79-4.42,13.11-21.81,20.87-26.76,11.94-12-24-12-24"/><g class="c"><path class="a" d="M99.48,87.4l-7.86,6c2.38,1.66,6.47,1.66,13.12-1.31,17.39-7.76,18.84-12.08,21.81-20.87.94-2.77,3.32-20.55-4.54-33.6,4.2,13.15,10.47,44.44-22.53,49.77"/></g><g class="d"><path class="a" d="M116,55.52c-.57-1.92-4.23-7.75-7.21-12.31a228,228,0,0,0-16,24.9s-4.22,10.28-4.05,18c3.26,2.82,6.89,5.83,10,8a31.14,31.14,0,0,0,6.06-2.07l.52-.24a55,55,0,0,0-6.67-13.43C113.86,72,116,55.52,116,55.52"/></g><path class="b" d="M105.61,94.07A50.11,50.11,0,0,0,96.34,80.8a46.76,46.76,0,0,0-5.61-4.9,66.94,66.94,0,0,1,4.22,6,64.32,64.32,0,0,1,9,44.66c-.26,1.62-.47,3.08-.64,4.37a47.58,47.58,0,0,0,8.28-4c.37-.84.72-1.65,1-2.43-.2-4.78-1.28-18.59-7-30.5"/><g class="e"><path class="a" d="M90.73,75.9a43.17,43.17,0,0,0-6-3.73L30,92.23q-.4.74-.77,1.5C39.94,94.24,78,95,95,81.95c.48-.37.94-.75,1.39-1.15a47,47,0,0,0-5.61-4.9"/></g><path class="f" d="M64.69,0,60.22,6.51l6,5.55,9.05-1.12A39.34,39.34,0,0,0,64.69,0"/><g class="g"><polygon class="f" points="61.58 7.78 60.22 6.51 64.69 0 66 8.13 61.58 7.78"/></g><path class="f" d="M19.18,18.59l7.75,1.53-.38,8.14L19.3,33.79a39.34,39.34,0,0,1-.12-15.2"/><g class="h"><polygon class="a" points="26.84 21.96 26.93 20.12 19.18 18.59 23.93 25.31 26.84 21.96"/></g><path class="f" d="M92.25,22C78.59,8.88,58.89,2.16,41.86,9.12S15.47,34.66,14.93,53.63s7.32,38.22,7.32,38.22C42.32,104,75.06,90.39,75.06,90.39S108,77.17,113.78,54.46c0,0-7.87-19.25-21.54-32.41"/><g class="i"><path class="a" d="M63.86,63c7.43-3,14.65-2.58,16.12,1s-3.37,9-10.8,12-14.65,2.58-16.12-1,3.36-9,10.8-12"/></g><path class="j" d="M63.35,61.72c7.44-3,14.65-2.58,16.12,1s-3.37,9-10.8,12-14.65,2.58-16.12-1,3.37-9,10.8-12"/><path class="k" d="M49,65.43a3.17,3.17,0,1,1-4.13-1.73A3.17,3.17,0,0,1,49,65.43"/><path class="j" d="M46,64.74a2.37,2.37,0,1,1-1.3,3.09A2.37,2.37,0,0,1,46,64.74"/><path class="l" d="M46.54,65.6a.77.77,0,1,1-.42,1,.76.76,0,0,1,.42-1"/><path class="k" d="M76.32,54.28A3.17,3.17,0,1,0,78,50.15a3.17,3.17,0,0,0-1.73,4.13"/><path class="j" d="M78,51.65a2.37,2.37,0,1,1-1.3,3.09A2.36,2.36,0,0,1,78,51.65"/><path class="l" d="M78.21,52.67a.77.77,0,1,1-.42,1,.76.76,0,0,1,.42-1"/><g class="m"><path class="a" d="M33,78.38c-4.34,1.83-9.94,8.25-9,12s25.38,8.44,25.38,8.44,9.74-12.92,4.12-19.11S37.36,76.56,33,78.38"/></g><rect class="n" x="18.29" y="99.43" width="102" height="34.94"/><rect class="o" x="18.29" y="92.43" width="102" height="41.94"/><g class="p"><rect class="a" x="18.29" y="99.43" width="106" height="18"/></g><polygon class="n" points="135.69 117.43 8.55 117.43 8.55 117.43 135.69 117.43 135.69 117.43"/><polygon class="q" points="127.17 92.43 12.6 92.43 12.41 99.43 127.45 99.43 127.17 92.43"/><polygon class="r" points="12.6 92.47 0 105.17 0 117.47 10.43 117.47 42.92 92.47 12.6 92.47"/><path class="s" d="M72,92.48H18v43H126v-43Z"/><polygon class="r" points="131.25 92.47 144 105.17 144 117.47 133.42 117.47 100.93 92.47 131.25 92.47"/><polygon class="t" points="72 117.47 140.13 117.47 131.44 99.47 71.98 99.47 71.86 99.47 12.41 99.47 4.72 117.47 72 117.47"/><polygon class="q" points="131.25 92.47 72.03 92.47 71.82 92.47 12.6 92.47 12.41 99.47 71.86 99.47 71.98 99.47 131.44 99.47 131.25 92.47"/><path class="f" d="M34,79.22c4-1.82,13.71-4.88,18.88,1.32s-3.79,19.11-3.79,19.11S26.64,95,25.74,91.21,30,81,34,79.22"/></svg>